<?xml version="1.0" encoding="utf-8"?>
<!-- Generator: Adobe Illustrator 23.0.3, SVG Export Plug-In . SVG Version: 6.00 Build 0)  -->
<svg version="1.1" id="Layer_1" xmlns="http://www.w3.org/2000/svg" xmlns:xlink="http://www.w3.org/1999/xlink" x="0px" y="0px"
	 viewBox="0 0 590 300" style="enable-background:new 0 0 590 300;" xml:space="preserve">
<style type="text/css">
	.st0{fill:#F3DD60;}
</style>
<g>
	<path class="st0" d="M116.2,2.1c0,45.2,0,90.5,0,135.7c28.9,0,57.8,0,87.1,0c-0.3,6.8-0.5,12.8-0.9,18.8
		c-0.9,12.5-2.4,24.9-6.8,36.6c-3.6,9.6-8.6,18.1-17.6,22.4c-3.7,1.8-7.8,2.6-11.8,3.4c-4.4,0.9-9,1.4-13.5,2c0,26.1,0,51.9,0,77.9
		c0.8,0,1.4,0.1,1.9,0c13.1-1.6,26.3-2.3,39.2-5c18.2-3.8,34.8-11.8,47.7-27.7c10.7-13.1,18-28.2,22.4-45c6.4-24.5,9.1-49.6,9.4-75
		c0.5-47.6,0.4-95.1,0.5-142.7c0-0.5-0.2-1-0.3-1.6C221,2.1,168.6,2.1,116.2,2.1z"/>
	<path class="st0" d="M474.8,2.4c-52.6,0-105,0-157.2,0c0,45.3,0,90.4,0,135.7c28.6,0,56.9,0,85.2,0c0,3.8,0.1,7.3,0,10.7
		c-0.7,15-2,29.9-6.9,44.1c-3.4,9.7-8.3,18.3-17.2,22.7c-3.8,1.9-8,2.7-12.1,3.6c-4.2,0.9-8.5,1.4-12.6,2c0,26.2,0,51.9,0,78.7
		c13.7-1.9,27.1-3,40.2-5.8c18.5-3.9,35.3-11.8,48.4-27.8c10.9-13.3,18.2-28.6,22.6-45.7c6.3-24.4,9.1-49.4,9.4-74.6
		c0.5-47.4,0.4-94.9,0.5-142.3C475,3.4,474.9,3,474.8,2.4z"/>
</g>
</svg>
