<?xml version="1.0" encoding="utf-8"?>
<!-- Generator: Adobe Illustrator 23.0.3, SVG Export Plug-In . SVG Version: 6.00 Build 0)  -->
<svg version="1.1" id="Layer_1" xmlns="http://www.w3.org/2000/svg" xmlns:xlink="http://www.w3.org/1999/xlink" x="0px" y="0px"
	 viewBox="0 0 590 300" style="enable-background:new 0 0 590 300;" xml:space="preserve">
<style type="text/css">
	.st0{fill:#FFFFFF;}
</style>
<g>
	<path class="st0" d="M307.9,0c3,1.4,6.2,2.4,8.9,4.2c4.5,3.1,6.7,7.8,7.5,13.1c24.2,4.7,34.5,22.5,24.8,43.1c0.6,0.5,1.3,1,2,1.5
		c4.9,3.9,6.8,9.1,5.5,15.2c-1.3,5.8-5,9.7-10.9,11.2c-2.2,0.5-2.9,1.4-3.2,3.6c-2.8,22.5-5.7,44.9-8.5,67.4
		c-0.4,3.2-0.8,6.4-1.2,10c0.9-0.5,1.6-0.8,2.1-1.2c44.5-29,103.5-2.4,110.5,50.3c3.7,28-6.1,51-28.3,68.6c-1.2,1-3.3,1.8-4.7,1.5
		c-1.3-0.3-2.6-2-3.2-3.4c-0.8-1.9,0.4-3.5,2.1-4.7c7.7-5.7,13.8-12.7,18.4-21.2c21.1-39-2.7-87-46.5-93.7
		c-32.3-5-63.7,17.4-70.4,50.3c-6.8,33.1,13.2,65.9,45.7,74.7c10.5,2.8,21.1,2.7,31.7,0.1c1.4-0.3,3.4-0.5,4.4,0.3
		c1.1,0.8,2.2,2.8,2,4.1c-0.2,1.4-1.7,3.2-3.1,3.7c-3.3,1.1-6.9,1.5-10.3,2.2c-1,0.2-1.9,0.4-2.9,0.6c-3.9,0-7.9,0-11.8,0
		c-0.7-0.2-1.3-0.4-2-0.5c-8-0.8-15.5-3.2-22.8-6.4c-2.1-1-4.6-1.6-7-1.6c-25.8-0.1-51.6,0-77.4-0.1c-2.5,0-5.1-0.5-7.3-1.6
		c-3.5-1.8-4.6-5.3-4.6-9.2c0-5.5,0-10.9,0-16.8c-1.5,0-2.6,0-3.8,0c-15.6,0-31.2,0.1-46.8,0c-9.6-0.1-16.3-5.8-17.6-15.2
		c-2.7-20.2-5.2-40.4-7.8-60.6c-2.9-22.5-5.7-44.9-8.6-67.4c-1.4-11-2.8-21.9-4.1-32.1c-3.4-1.8-6.6-2.8-8.9-4.8
		c-2.3-2.1-3.5-5.2-5.2-7.9c0-2,0-3.9,0-5.9c1.1-2.3,2-4.7,3.5-6.7c1.2-1.6,1.5-2.8,1.2-4.7c-1.7-10.3,4.8-19.8,15-21.9
		c2.4-0.5,4.8-0.4,7.3-0.6c2.4-22.1,26.3-33.8,45.6-22.3c12.6-8.1,23-5.9,31,6.4c0.3,0.5,1,1.1,1.5,1.1c3,0.1,6,0.1,9.2,0.1
		c2.1-5.3,5.8-9.3,11.3-11.5c5.5-2.2,10.9-1.6,16.3,0.6c3-6.6,8.3-10,14.8-11.8C303.5,0,305.7,0,307.9,0z M158.2,58.9
		c1.2,0,2.2,0,3.2,0c10.6,0,21.2,0,31.8,0c3.9,0,6,1.6,5.9,4.5c0,2.8-2,4.3-5.8,4.3c-4,0-8,0-12.1,0c-7.2,0-14.3-0.1-21.5,0
		c-3.6,0.1-6.2,2.8-6.2,6.1c0,3.4,2.6,5.9,6.2,6.2c0.7,0,1.4,0,2.1,0c59.4,0,118.7,0,178.1,0c0.9,0,1.8,0,2.6-0.1
		c3.3-0.4,5.5-3,5.5-6.2c0-3.1-2.2-5.6-5.4-6c-1.1-0.1-2.2-0.1-3.2-0.1c-39.5,0-79.1,0-118.6,0c-4.8,0-6.9-1.3-6.9-4.4
		c0-3.1,2.1-4.5,6.9-4.5c38.6,0,77.1,0,115.7,0.1c2.5,0,3.7-0.9,4.8-2.8c4.6-8.2,2.8-18.4-4.4-24.6c-4.7-4.1-10.3-5.4-16.4-5
		c-3.9,0.3-5.7-1.7-5.3-5.5c0.7-6.4-3.4-11.6-9.5-12.2c-6.1-0.6-11.4,3.7-11.8,10c-0.2,2.2-0.7,4.1-2.9,4.9
		c-2.2,0.9-3.9-0.1-5.5-1.7c-3.1-3.3-7.1-4.2-11.3-2.9c-4.5,1.4-6.8,4.6-7.5,9.3c-0.6,4.1-2.7,5.1-6.9,4.3
		c-3.9-0.7-7.9-1.1-11.8-0.7c-4.5,0.4-5.9-0.1-7-4.4c-1-4.2-3.6-7-7.7-8c-4.2-1-8,0-11,3.3c-3.3,3.5-4.6,3.6-8.5,0.8
		c-5.7-4.1-11.9-5.3-18.7-3.3c-9.7,2.9-15.5,11.8-14.4,22.2c0.5,4.8-2.6,7-6.9,5.1c-0.5-0.2-1.1-0.5-1.6-0.7
		c-4.1-1.2-7.8-0.4-11,2.4C158.6,51.8,157.4,54.9,158.2,58.9z M167.9,89c0,0.4-0.1,0.7-0.1,1c2.6,20.5,5.2,41,7.9,61.6
		c2.8,22.3,5.7,44.5,8.5,66.8c1.2,9.8,2.4,19.7,3.7,29.5c0.8,6,3.6,8.4,9.6,8.5c3,0,6.1,0,9.1,0c4.2,0,8.4,0,12.6,0
		c0.1-0.6,0.2-0.9,0.2-1.2c-2.1-22.6-4.3-45.1-6.5-67.7c-0.1-1-0.9-1.9-1.4-2.8c-3.1-5.2-7-10.1-9.2-15.6c-5-12.7-4.4-25.1,4.3-36.5
		c0.6-0.7,0.8-2,0.7-2.9c-0.6-7.4-1.3-14.9-2-22.3c-0.6-6.1-1.2-12.2-1.8-18.4C191.4,89,179.7,89,167.9,89z M208.1,154
		c0.1,7.9,2.8,15.5,8.4,22.7c8.8,11.3,20.4,19,33.2,25.2c0.8,0.4,2.2,0.2,2.9-0.3c7.6-4.8,15.5-9.3,22.5-14.9
		c9.6-7.7,16.7-17.3,18.3-30.1c1.3-10.2-4.3-20.7-13.2-24.4c-9.6-4-19.9,0.6-24.9,11.1c-0.9,2-2.1,3.6-4.4,3.7
		c-2.5,0.1-3.9-1.5-4.7-3.7c-0.3-0.8-0.8-1.6-1.2-2.3c-4.5-7.5-12.4-11.3-20.3-9.7C215,133.2,208.1,142.7,208.1,154z M298.5,89.1
		c-0.1,0.5-0.3,1-0.4,1.5c-1.3,13.1-2.6,26.1-3.7,39.2c-0.1,1.1,0.5,2.4,1.2,3.4c5.5,7.5,7.6,15.7,6.6,24.9
		c-1.1,9.7-5.4,17.9-11.2,25.5c-1.1,1.4-1.9,3.2-2.1,4.9c-1.2,10.8-2.2,21.7-3.2,32.5c-0.8,7.9-1.5,15.8-2.2,23.8
		c7.1,0,13.9,0,20.8,0c-0.1-0.7-0.2-1.3-0.3-1.8c-4.1-23.1,1.3-43.8,16.4-61.7c1.8-2.1,2.5-4.2,2.9-6.8c2.6-20.8,5.3-41.6,7.9-62.4
		c1-7.6,1.9-15.1,2.9-22.9C322,89.1,310.3,89.1,298.5,89.1z M212.4,89.1c1.2,12.1,2.3,23.9,3.5,35.8c14.1-6,25.6-2.4,35.1,8.5
		c9.7-11.1,21.2-14.4,35.1-8.6c1.1-12,2.3-23.8,3.4-35.8C263.6,89.1,238.2,89.1,212.4,89.1z M222.6,196.5
		c1.9,19.6,3.8,39.6,5.7,59.7c6.5,0,12.6,0,18.7,0c0.2-0.4,0.3-0.6,0.4-0.9c1.2-7.8,4.2-10.3,12.2-10.3c4.9,0,9.8,0,14.8,0
		c1.6-16.5,3.1-32.7,4.6-48.6c-7.9,4.7-15.7,9.2-23.4,13.8c-3.4,2-6.6,1.9-9.9-0.1C238.2,205.5,230.4,201.1,222.6,196.5z
		 M298.8,283.9c0-10.1,0-20,0-29.9c-5.6,0-11.1,0-16.6,0c0,10.1,0,19.9,0,29.9C287.9,283.9,293.3,283.9,298.8,283.9z M256.8,254
		c-0.2,0.4-0.4,0.7-0.4,1c0,9.1-0.1,18.2,0,27.3c0,0.6,0.9,1.7,1.4,1.7c5,0.1,10.1,0.1,15.2,0.1c0-10.3,0-20.2,0-30.1
		C267.4,254,262.1,254,256.8,254z M308,283.8c6.5,0,12.7,0,19.5,0c-8.6-7.6-14.8-16.4-19.5-26.2C308,266.2,308,274.9,308,283.8z"/>
	<path class="st0" d="M399.7,0c11.6,4.1,12.4,16,6,24.1c-3.6,4.6-8.2,7.9-13.4,10.1c-1.1,0.5-2.8,0.6-3.9,0.2
		c-6.2-2.7-11.7-6.4-15.3-12.3c-3.9-6.6-3.4-14.1,1.6-18.6c1.6-1.5,3.7-2.3,5.6-3.5c1.8,0,3.5,0,5.3,0c3.1,2.8,6.3,2.1,9.4,0
		C396.6,0,398.2,0,399.7,0z M401.9,13.3c-1.5-1.7-2.5-3.6-3.9-4c-0.9-0.3-2.9,1.1-3.8,2.2c-2.5,3.3-6,3.5-8.1,0.2
		c-1-1.7-2.1-3.4-4.3-2.5c-2.2,0.9-3,3.1-2.3,5.1c0.8,2.3,1.9,4.9,3.7,6.4c7.2,6.2,6.5,6.2,13.6,0C398.9,18.9,400,16.1,401.9,13.3z"
		/>
	<path class="st0" d="M418,61.6c4.5-3.9,9.6-5.6,15.3-4.1c9.7,2.5,15,13.1,12.1,23.7c-1.6,5.9-4.9,10.8-9.5,14.5
		c-4.7,3.8-9.9,7-15.1,10c-1.3,0.8-3.7,0.8-5.2,0.2c-7.5-3.2-14.1-7.7-19.4-14c-4.8-5.7-7.4-12.3-6.2-19.8
		C392,58.7,406.6,51.9,418,61.6z M398.1,75.8c0.8,2.3,1.4,5,2.7,7.4c3.7,6.5,9.7,10.4,16.1,13.7c0.6,0.3,1.8,0.2,2.4-0.2
		c5.4-2.8,10.4-6.3,14.2-11.2c2.4-3.2,4-6.7,3.9-10.8c-0.1-3.9-2.8-7.7-6.1-8.6c-3.4-0.9-6.7,0.6-8.7,4c-3.2,5.4-6.1,5.3-9.5-0.1
		c-1.6-2.6-3.8-4.2-7-4c-3.2,0.2-5.3,2-6.6,4.7C398.9,72,398.7,73.7,398.1,75.8z"/>
	<path class="st0" d="M374.4,206.5c12.2,0,22.2,10,22.2,22.3c0,12.2-10.1,22.4-22.2,22.5c-12.1,0-22.2-10.1-22.2-22.4
		C352.2,216.6,362.2,206.5,374.4,206.5z M387.8,228.8c-0.1-7.5-6.1-13.5-13.5-13.4c-7.4,0-13.4,6.2-13.3,13.6
		c0.1,7.4,6.2,13.6,13.5,13.5C381.8,242.4,387.9,236.1,387.8,228.8z"/>
	<path class="st0" d="M356.9,120.3c0.2-9.6,9.8-16.7,18.7-11.8c0.6,0.3,1.7,0.4,2.3,0.1c5-2.6,9.7-2.4,13.9,1.3
		c4.5,4,5.7,9.1,3.8,14.7c-2.8,8.7-9.7,13.4-17.7,16.9c-0.7,0.3-1.8,0.3-2.5-0.1c-7.1-3-13.3-7.2-16.7-14.5
		C357.9,124.9,357.6,122.5,356.9,120.3z M387.7,118.9c-0.6-0.6-1.5-2.3-2.8-2.8c-0.8-0.3-2.8,0.7-3.5,1.6c-3.1,4.2-5.8,4.2-8.9,0
		c-0.7-0.9-2.3-2-3.3-1.7c-1.1,0.3-2.4,1.7-2.8,2.9c-0.4,1.1-0.3,2.9,0.4,3.9c1.3,2.1,2.7,4.4,4.6,5.9c6.1,4.7,4.9,4.8,11.2-0.1
		C385.3,126.5,387.5,123.8,387.7,118.9z"/>
	<path class="st0" d="M331.8,215.5c7.5,0,13.4,5.9,13.5,13.4c0.1,7.4-6,13.6-13.3,13.6c-7.3,0.1-13.4-6.1-13.5-13.5
		C318.4,221.6,324.4,215.5,331.8,215.5z M336.4,229.1c0.1-2.5-1.8-4.6-4.3-4.7c-2.6-0.1-4.7,1.9-4.8,4.5c-0.1,2.6,2.1,4.8,4.6,4.8
		C334.3,233.6,336.3,231.5,336.4,229.1z"/>
	<path class="st0" d="M430.4,228.7c0,7.5-5.9,13.5-13.4,13.5c-7.5,0-13.4-6-13.3-13.5c0-7.4,5.9-13.3,13.2-13.4
		C424.3,215.2,430.3,221.2,430.4,228.7z M416.8,224.2c-2.6,0.1-4.5,2.2-4.3,4.9c0.1,2.6,2.1,4.4,4.6,4.3c2.4-0.1,4.4-2.1,4.4-4.6
		C421.5,226.2,419.4,224.1,416.8,224.2z"/>
	<path class="st0" d="M404.4,184.9c7.4,0,13.5,6,13.5,13.5c0,7.4-6.1,13.5-13.5,13.4c-7.3-0.1-13.2-6-13.3-13.4
		C391,191,397,184.9,404.4,184.9z M404.5,193.7c-2.4-0.1-4.5,1.9-4.7,4.4c-0.1,2.4,2,4.9,4.5,4.9c2.4,0.1,4.7-2.3,4.7-4.7
		C409,195.9,407,193.8,404.5,193.7z"/>
	<path class="st0" d="M344.1,212c-7.3-0.1-13.3-6.2-13.2-13.7c0.1-7.4,6.2-13.4,13.6-13.4c7.3,0.1,13.3,6.3,13.2,13.7
		C357.5,206.1,351.5,212.1,344.1,212z M348.8,198.5c0-2.5-2.2-4.8-4.6-4.7c-2.3,0.1-4.4,2.2-4.5,4.6c0,2.5,2.2,4.8,4.6,4.7
		C346.7,203.1,348.8,201,348.8,198.5z"/>
	<path class="st0" d="M374.4,258.5c7.4,0,13.5,5.9,13.5,13.3c0.1,7.4-6,13.6-13.3,13.7c-7.3,0.1-13.4-6-13.5-13.4
		C361,264.6,367,258.5,374.4,258.5z M379.1,272c0-2.6-2-4.7-4.6-4.7c-2.5,0-4.4,2-4.5,4.5c0,2.6,2.1,4.8,4.6,4.8
		C377,276.6,379,274.4,379.1,272z"/>
	<path class="st0" d="M374.3,199.2c-7.4,0-13.5-6.1-13.4-13.5c0-7.3,6-13.3,13.3-13.4c7.4-0.1,13.5,5.9,13.6,13.4
		C387.8,193.1,381.8,199.2,374.3,199.2z M378.9,185.9c0-2.5-1.9-4.5-4.3-4.7c-2.6-0.1-4.7,1.9-4.8,4.5c0,2.4,1.9,4.6,4.4,4.7
		C376.7,190.5,378.8,188.5,378.9,185.9z"/>
	<path class="st0" d="M404.7,272.7c-7.5,0-13.4-5.9-13.4-13.4c0-7.5,6-13.5,13.4-13.4c7.4,0.1,13.2,5.9,13.3,13.3
		C418,266.6,412.1,272.6,404.7,272.7z M409.1,259.4c0.1-2.5-2.1-4.8-4.6-4.8c-2.4,0-4.4,2.1-4.5,4.5c-0.1,2.5,1.8,4.6,4.2,4.7
		C406.9,264,409.1,262,409.1,259.4z"/>
	<path class="st0" d="M344.3,272.8c-7.4,0-13.4-6.1-13.4-13.5c0-7.4,6.1-13.4,13.5-13.4c7.4,0,13.4,6.1,13.4,13.5
		C357.8,266.9,351.7,272.9,344.3,272.8z M344.5,263.9c2.6,0,4.5-1.9,4.5-4.4c0-2.5-2.2-4.7-4.7-4.6c-2.4,0.1-4.4,2.1-4.5,4.5
		C339.8,261.9,341.8,263.9,344.5,263.9z"/>
</g>
</svg>
