<?xml version="1.0" encoding="utf-8"?>
<!-- Generator: Adobe Illustrator 23.0.3, SVG Export Plug-In . SVG Version: 6.00 Build 0)  -->
<svg version="1.1" id="Layer_1" xmlns="http://www.w3.org/2000/svg" xmlns:xlink="http://www.w3.org/1999/xlink" x="0px" y="0px"
	 viewBox="0 0 590 300" style="enable-background:new 0 0 590 300;" xml:space="preserve">
<g>
	<path d="M428,129.4c0-5.2-2.2-7.2-8.1-7.2c-63.9,0-127.9,0-191.8,0c-1.1,0-2.2,0-3.2,0c0-0.2-0.2-0.4-0.2-0.4
		c0.9-0.4,1.8-0.7,2.7-0.9c61.3-17.8,122.9-35.5,184.2-53.3c6.6-2,7.7-4.1,5.7-10.8c-3.2-11.1-6.1-22.4-10-33.5
		C403.2,11,394.3,4,381.7,1.9c-0.5,0-0.9-0.4-1.4-0.4c-2.5,0-5,0-7.5,0c-13.5,3.9-27.1,7.7-40.5,11.7c-47.7,13.8-95.4,27.6-143,41.4
		C173.8,59.1,164,72.4,165,87.8c0.4,4.5,1.8,9,2.9,13.3c2.2,7.7,4.7,15.4,6.6,23.3c0.7,2.9,1.3,6.1,1.3,9.1c0,43.8,0,87.5,0,131.3
		c0,19.4,9,30.7,27.6,35.3c0.2,0,0.4,0.2,0.4,0.4c25.3,0,50.6,0,75.9,0c2.7-1.3,4.8-3,4.5-6.5c-0.4-3.4-2.9-5.2-7-5.2
		c-11.7,0-23.3,0-35,0c-10.8,0-21.5,0-32.5,0c-13.5,0-22.2-8.8-22.2-22.2c0-24.9,0-50,0-75c0-0.9,0-1.8,0-2.9
		c76.2,0,152.3,0,228.7,0c0,1.1,0.2,2.2,0.2,3.2c0,24.6,0,49.3,0,73.9c0,14.7-8.6,23.1-23.3,23.1c-21.9,0-43.6,0-65.5,0
		c-1.1,0-2.3,0-3.4,0.2c-2.3,0.5-3.9,2-4.5,4.5c-0.5,2.3,0.4,4.5,2.3,5.9c0.5,0.4,1.1,0.7,1.6,1.1c25.3,0,50.6,0,75.9,0
		c2-0.5,3.9-1.1,5.9-1.6c13.5-4.5,22.4-16.1,22.4-31.2C428,221.6,428,175.5,428,129.4z M361.5,16.7c3.8-1.1,7.7-2.3,11.5-3
		c9.5-2,19.7,3.2,23,12.2c3.6,10,6.3,20.6,9.5,31.2c-6.1,1.8-12,3-17.8,5.2c-4.3,1.6-6.8,0.5-10-2.5c-11.7-11.7-23.7-22.8-35.5-34.3
		c-0.7-0.7-1.6-1.3-2.9-2.3C347.3,20.9,354.3,18.7,361.5,16.7z M296.2,35.6c7-2,14-4.1,20.8-6.1c3.2-0.9,6.6-2.9,9.5-2.2
		c2.9,0.7,5,4.1,7.4,6.5c10.9,10.4,21.7,20.8,32.6,31.2c0.7,0.7,1.8,1.1,2.7,1.6c-0.2,0.4-0.5,0.7-0.7,1.1
		c-8.3,2.3-16.7,4.5-24.8,7.4c-4.3,1.4-7,0.5-10-2.5C322,60.9,310,49.8,298.1,38.3c-0.7-0.7-1.8-1.1-2.7-1.6
		C295.8,36.3,296,35.9,296.2,35.6z M252.2,48.3c9.7-2.9,19.4-5.6,29.1-8.4c0.7-0.2,1.8,0,2.3,0.5c13.8,13.1,27.4,26.2,41.6,39.8
		c-8.3,2.3-16.1,4.3-23.7,7c-5.6,2-9,0.9-13.1-3.2c-11.1-11.3-22.8-22.1-34.3-33c-0.7-0.7-1.8-1.1-2.7-1.6
		C251.7,49,252,48.7,252.2,48.3z M237.5,52.6c0.7-0.2,1.8,0.2,2.2,0.5c13.6,12.9,27.1,26,40.7,38.9c0.2,0.2,0.2,0.4,0.5,0.9
		c-10,2.9-19.7,5.7-29.6,8.6c-0.5,0.2-1.6-0.2-2-0.5c-13.6-13.1-27.3-26.2-40.7-39.3c-0.2-0.2-0.2-0.4-0.2-0.7
		C218,58.2,227.6,55.5,237.5,52.6z M185.7,120.8c-2.2-7.4-4.1-14.4-6.3-21.3c-0.9-3-1.8-5.9-2.3-9c-2.2-11.8,4.7-22.2,16.5-24.9
		c0.7-0.2,1.8,0,2.3,0.5c13.6,12.9,27.1,26,40.7,38.9c0.2,0.2,0.4,0.5,0.5,0.9C219.7,110.7,202.9,115.8,185.7,120.8z M211.1,176.8
		c-7.7-0.2-15.6,0-23.5,0c0-14.5,0-28.5,0-42.7c16.9,0,33.7,0,50.9,0c-0.5,1.1-1.1,2-1.4,2.7c-7.2,12.6-14.5,25.1-21.7,37.7
		C214.4,176.2,213.3,176.8,211.1,176.8z M257.1,176.8c-8.8-0.2-17.8,0-26.5,0c-0.9,0-1.6,0-2.9-0.2c0.5-1.1,0.9-1.8,1.3-2.5
		c7.4-12.6,14.7-25.3,21.9-37.8c1.1-1.8,2-2.5,4.1-2.3c8.8,0.2,17.8,0,26.5,0c0.9,0,1.6,0,2.9,0.2c-0.5,1.1-0.9,1.8-1.3,2.5
		c-7.4,12.6-14.5,25.3-21.9,37.8C260.3,176.2,259.2,176.8,257.1,176.8z M303.2,176.8c-9.7-0.2-19.4,0-29.6,0
		c0.5-1.3,0.9-1.8,1.3-2.5c7.4-12.7,14.7-25.3,21.9-38c0.9-1.6,2-2.3,3.9-2.3c9.7,0.2,19.4,0,29.6,0c-0.5,1.1-1.1,2-1.4,2.7
		c-7.4,12.6-14.5,25.3-21.9,37.8C306,176,305.1,176.8,303.2,176.8z M348.7,176.8c-9.7-0.2-19.2,0-29.2,0c0.4-0.9,0.7-1.6,1.1-2.2
		c7.4-12.9,14.9-25.8,22.4-38.6c0.5-0.9,1.8-2,2.7-2c9.7-0.2,19.6,0,29.2,0c0.4,0,0.5,0.2,1.1,0.4c-0.4,0.9-0.7,1.6-1.3,2.3
		c-7.4,12.6-14.5,25.3-21.9,37.8C351.8,176.2,350.7,176.8,348.7,176.8z M416.2,176.6c-17,0-33.9,0-50.9,0c0.4-0.9,0.7-1.6,1.1-2.3
		c7.4-12.6,14.7-25.3,21.9-37.8c1.1-2,2.3-2.5,4.3-2.5c7.7,0.2,15.6,0,23.7,0C416.2,148.2,416.2,162.2,416.2,176.6z"/>
	<path d="M301.9,288.9c-2.7,0-4.7,1.4-5.4,4.1c-0.7,2.5,0,4.8,2.2,6.5c0.5,0.4,1.1,0.7,1.6,1.1c0.9,0,2,0,2.9,0
		c0.5-0.4,1.3-0.5,1.8-1.1c2.3-1.6,3.2-3.8,2.3-6.6C306.6,290.3,304.4,288.9,301.9,288.9z"/>
	<path d="M338.1,232.4c-16.3-9.5-32.6-18.8-49-28.3c-5.6-3.2-9.9-0.5-9.9,5.7c0,9.3,0,18.7,0,28c0,9.5,0,18.8,0,28.3
		c0,6.5,4.3,9,9.9,5.9c16.3-9.3,32.6-18.8,49-28.3C343.7,240.6,343.7,235.4,338.1,232.4z M291,257.5c0-13.3,0-25.8,0-38.9
		c11.3,6.5,22.2,12.9,33.7,19.4C313.4,244.6,302.3,251,291,257.5z"/>
</g>
</svg>
