<?xml version="1.0" encoding="utf-8"?>
<!-- Generator: Adobe Illustrator 23.0.3, SVG Export Plug-In . SVG Version: 6.00 Build 0)  -->
<svg version="1.1" id="Layer_1" xmlns="http://www.w3.org/2000/svg" xmlns:xlink="http://www.w3.org/1999/xlink" x="0px" y="0px"
	 viewBox="0 0 590 300" style="enable-background:new 0 0 590 300;" xml:space="preserve">
<g>
	<path d="M365.9,180.7c10.9,2,13.4,5.2,15.3,20.3c6,0,12,0,18.1,0c10.7,0,16.8,6.1,16.8,16.7c0,2.7,0,5.4,0,8.4c4.8,0,9.4,0,14,0
		c9.8,0,16.1,6.3,16.2,16.1c0,17.6,0,35.2,0,52.8c0,4.9-1.7,6.5-6.7,6.5c-8.9,0-17.8,0-26.7,0c-5.3,0-6.8-1.6-6.8-7
		c0-0.9,0-1.8,0-2.9c-73.7,0-147.2,0-221.1,0c0,1.5,0.1,3,0,4.5c-0.1,3.4-2,5.3-5.3,5.3c-9.8,0.1-19.7,0.1-29.5,0
		c-3.4,0-5.3-2-5.3-5.3c0-18.6-0.1-37.3,0.1-55.9c0.1-7.7,6.7-13.9,14.5-14.1c5-0.1,10,0,15.5,0c0-1.3,0.1-2.6,0-3.8
		c-1.3-15.4,5.7-22.7,21.5-21.4c4.4,0.3,8.8,0.1,12.4,0.1c1.4-4.8,2.1-9.6,4.2-13.7c2.2-4.4,6.9-6.1,11.9-6.5
		c-2.1-3.1-3.9-6.2-6.1-9.1c-0.5-0.7-2-0.8-3-0.8c-18,0-36,0-54,0c-11.1,0-17-6-17-17.1c0-45.6,0-91.3,0-136.9
		c0-10.8,6-16.8,17-16.8c89.2,0,178.4,0,267.6,0c10.9,0,17,6,17,16.8c0,45.7,0,91.5,0,137.2c0,10.6-6.1,16.8-16.7,16.8
		c-17.9,0-35.8,0-53.7,0c-2.3,0-3.8,0.4-4.9,2.7C369.7,176,367.7,178.1,365.9,180.7z M305.6,160.6c-2-24.7,16.3-39.2,33.1-40
		c9.5-0.4,18,2.4,25.1,8.7c9.3,8.3,12.9,18.9,11.8,31.4c1.2,0,2.1,0,3.1,0c16.9,0,33.7,0,50.6,0c5.3,0,6.9-1.6,6.9-6.9
		c0-45.6,0-91.3,0-136.9c0-5.3-1.6-6.9-6.9-6.9c-89.2,0-178.4,0-267.6,0c-5.4,0-6.9,1.6-6.9,6.9c0,45.6,0,91.3,0,136.9
		c0,5.4,1.6,6.9,6.9,6.9c16.9,0,33.7,0,50.6,0c1,0,2,0,3.1,0c-2.3-23.9,15.4-39.5,33.8-40.2c18.8-0.7,38.4,14.8,36.3,40
		C292.1,160.6,298.9,160.6,305.6,160.6z M406,281.3c0-1.3,0-2.2,0-3.1c0-20.1,0-40.2,0-60.3c0-5.3-1.6-6.9-7-6.9
		c-69.1,0-138.1,0-207.2,0c-5.4,0-6.9,1.5-6.9,6.9c0,20.1,0,40.2,0,60.3c0,1,0.1,2,0.1,3.1C258.8,281.3,332.2,281.3,406,281.3z
		 M275.4,156c0.1-13.9-11.1-25.3-25-25.4c-13.8-0.1-25.2,11.1-25.3,24.7c-0.1,14.1,11.1,25.5,25.1,25.5
		C264,180.9,275.3,169.7,275.4,156z M340.7,180.9c13.9,0,25.1-11.3,25.1-25.2c0-13.8-11.4-25.1-25.3-25c-13.7,0.1-24.9,11.3-25,25
		C315.6,169.6,326.9,180.9,340.7,180.9z M174.7,236.2c-4.6,0-9,0-13.4,0c-4.9,0-6.6,1.7-6.6,6.6c0,15.3,0,30.6,0,45.8
		c0,0.9,0.1,1.8,0.2,2.7c6.7,0,13.2,0,19.8,0C174.7,273,174.7,254.8,174.7,236.2z M436.2,291.4c0-17,0-33.7,0-50.5
		c0-2.5-1.6-4.4-4-4.6c-5.3-0.3-10.6-0.1-15.8-0.1c0,18.6,0,36.8,0,55.1C423,291.4,429.4,291.4,436.2,291.4z M300.4,200.9
		c-0.8-12.5,4.6-18.5,14.9-20.3c-1.9-2.9-3.8-5.9-5.9-8.7c-0.4-0.6-1.5-0.9-2.3-0.9c-7.7-0.1-15.5-0.1-23.2,0c-0.8,0-1.9,0.4-2.3,1
		c-2.1,2.8-3.9,5.8-5.9,8.9c11.7,1.6,15.7,9.2,14.9,20.2C294,200.9,297,200.9,300.4,200.9z M280.4,200.9c0-1.9,0.1-3.4,0-5
		c-0.2-3-2-4.9-5-4.9c-16.7-0.1-33.4-0.1-50.2,0c-3,0-4.8,2-5,4.9c-0.1,1.6,0,3.3,0,5C240.4,200.9,260.2,200.9,280.4,200.9z
		 M370.9,200.9c0-1.9,0.1-3.4,0-5c-0.2-3-2.1-4.9-5-4.9c-16.7-0.1-33.4-0.1-50.2,0c-3,0-4.8,2-5,4.9c-0.1,1.6,0,3.3,0,5
		C330.8,200.9,350.6,200.9,370.9,200.9z"/>
	<path d="M270.4,75.3c0-9.5,0-19,0-28.6c0-5.7,3.3-7.9,8.4-5.4c19.4,9.6,38.7,19.3,58,29c2.2,1.1,4.3,2.7,3.7,5.2
		c-0.4,1.8-2,4-3.7,4.8c-19.4,9.9-38.8,19.6-58.3,29.2c-4.7,2.3-8.1,0.2-8.1-5.1C270.3,94.7,270.4,85,270.4,75.3z M280.6,53.4
		c0,14.8,0,29.1,0,43.9c14.6-7.3,28.9-14.5,43.9-22C309.5,67.9,295.2,60.7,280.6,53.4z"/>
	<path d="M425.9,150.7c-10,0-19.7,0-29.6,0c0-3.2,0-6.4,0-9.8c9.8,0,19.7,0,29.6,0C425.9,144.2,425.9,147.4,425.9,150.7z"/>
	<path d="M182.8,19.9c2.1,2.1,4.3,4.3,6.2,6.2c-6,6.1-12,12.1-18.1,18.3c-1.8-2-3.9-4.4-5.9-6.6C170.8,32,176.8,26,182.8,19.9z"/>
	<path d="M186.1,59.4c-1.9-2-4.1-4.3-6.1-6.5c5.8-5.7,11.9-11.6,17.9-17.5c1.8,1.8,4.1,4,6.2,6C198.2,47.3,192.3,53.3,186.1,59.4z"
		/>
	<path d="M426,125.8c0,3.4,0,6.4,0,9.7c-6.6,0-13,0-19.7,0c0-3.1,0-6.3,0-9.7C412.8,125.8,419.3,125.8,426,125.8z"/>
	<path d="M416.2,120.4c0-3.3,0-6.4,0-9.7c3.2,0,6.4,0,9.7,0c0,3.2,0,6.4,0,9.7C422.8,120.4,419.7,120.4,416.2,120.4z"/>
</g>
</svg>
