<?xml version="1.0" encoding="utf-8"?>
<!-- Generator: Adobe Illustrator 23.0.3, SVG Export Plug-In . SVG Version: 6.00 Build 0)  -->
<svg version="1.1" id="Layer_1" xmlns="http://www.w3.org/2000/svg" xmlns:xlink="http://www.w3.org/1999/xlink" x="0px" y="0px"
	 viewBox="0 0 590 300" style="enable-background:new 0 0 590 300;" xml:space="preserve">
<g>
	<path d="M112.8,18.5c1.5-3.1,2.6-6.5,4.6-9.4c3.6-4.9,8.7-7.3,14.9-7.6c1.1-0.1,2.2,0,3.4,0c100.5,0,200.9,0,301.4,0
		c14.9,0,22.9,8,22.9,23c0,57,0,114.1,0,171.1c0,14.5-8.1,22.8-22.7,22.8c-99.8,0-199.8-0.1-299.6,0.1c-12.4,0-21.4-4.4-24.9-17.1
		C112.8,140.6,112.8,79.6,112.8,18.5z M286.7,15.2c-50.4,0-100.8,0-151.2,0c-6.9,0-9.1,2.1-9.1,9.1c0,57.1,0,114.4,0,171.5
		c0,7,2.1,9.2,9,9.2c100.7,0,201.3,0,302,0c6.9,0,9.1-2.2,9.1-9.1c0-57.1,0-114.4,0-171.5c0-7.1-2.1-9.2-9.4-9.2
		C386.9,15.2,336.8,15.2,286.7,15.2z"/>
	<path d="M112.8,270.7c2-3.7,5-4.9,9.2-4.8c11.2,0.2,22.4,0,33.6,0.1c2,0,3-0.4,3.7-2.5c4.1-11.1,14-18,25.5-18
		c11.4,0,21.3,6.9,25.4,18c1,2.6,2.5,2.3,4.3,2.3c78.5,0,157.1,0,235.6,0c1.2,0,2.5-0.1,3.7,0c3.4,0.4,6,3.2,6.2,6.5
		c0.1,3.4-2.6,6.5-6.2,6.9c-1.2,0.1-2.5,0.1-3.7,0.1c-78.4,0-156.8,0-235.3,0c-2.7,0-4.1,0.5-5.2,3.3c-3.9,10.5-14.2,17.1-25.4,17
		c-11-0.1-20.9-6.9-24.9-17.4c-1-2.5-2.1-3.1-4.7-3.1c-11,0.1-21.9-0.1-32.9,0.1c-4.2,0.1-7.3-1.1-9.2-4.8
		C112.8,273.5,112.8,272.1,112.8,270.7z M184.6,259.3c-7.4,0-13.5,6.2-13.4,13.7c0,7.4,6.2,13.5,13.7,13.4c7.4,0,13.5-6.2,13.4-13.7
		C198.3,265.3,192.1,259.2,184.6,259.3z"/>
	<path d="M252.6,110.1c0-10.8,0-21.7,0-32.5c0-3.1,0.7-5.7,3.4-7.3c2.8-1.6,5.4-0.9,8,0.7c17.4,10.8,34.7,21.7,52,32.5
		c6,3.8,6,9.4,0,13c-17.4,10.8-34.7,21.7-52,32.5c-2.6,1.6-5.2,2.3-8,0.7c-2.7-1.6-3.4-4.2-3.4-7.3
		C252.6,131.8,252.6,120.9,252.6,110.1z"/>
</g>
</svg>
